# xmcd
#
# Track frame offsets:
# 150
# 19494
# 34647
# 50300
# 68014
# 89244
# 106817
# 124834
# 141828
# 155869
# 178323
# 193760
# 210320
# 227656
#
# Disc length: 3293 seconds
#
#
# Revision: 0
# Processed by: cddbd v1.5.1PL0 Copyright (c) Steve Scherf et al.
# Submitted via: FreeRIP 2.91 
#
DISCID=ca0cdb0e
DTITLE=TIM McGRAW - PLACE IN THE SUN
DYEAR=1900
DGENRE=
TTITLE0=TROUBLE WITH NEVER
TTITLE1=SEVENTEEN
TTITLE2=SHE'LL HAVE YOU BACK
TTITLE3=SOMEBODY MUST BE PRAYIN' FOR ME
TTITLE4=MY BEST FRIEND
TTITLE5=SENORITA MARGARITA
TTITLE6=SOME THINGS NEVER CHANGE
TTITLE7=YOU DON'T LOVE ME ANYMORE
TTITLE8=SOMETHING LIKE THAT
TTITLE9=PLEASE REMEMBER ME
TTITLE10=CARRY ON
TTITLE11=MY NEXT THIRTY YEARS
TTITLE12=EYES OF A WOMAN
TTITLE13=PLACE IN THE SUN
EXTD=
EXTT0=
EXTT1=
EXTT2=
EXTT3=
EXTT4=
EXTT5=
EXTT6=
EXTT7=
EXTT8=
EXTT9=
EXTT10=
EXTT11=
EXTT12=
EXTT13=
PLAYORDER=
